<svg width="48" height="48" viewBox="0 0 48 48" fill="none" xmlns="http://www.w3.org/2000/svg">
  <!-- Wi-Fi Signal Waves (3 arcs) -->
  <path d="M24 32C25.1046 32 26 32.8954 26 34C26 35.1046 25.1046 36 24 36C22.8954 36 22 35.1046 22 34C22 32.8954 22.8954 32 24 32Z" fill="#667EEA"/>

  <!-- Inner wave -->
  <path d="M24 26C27.3137 26 30 28.6863 30 32" stroke="#667EEA" stroke-width="2.5" stroke-linecap="round"/>
  <path d="M18 32C18 28.6863 20.6863 26 24 26" stroke="#667EEA" stroke-width="2.5" stroke-linecap="round"/>

  <!-- Middle wave -->
  <path d="M24 20C30.6274 20 36 25.3726 36 32" stroke="#764BA2" stroke-width="2.5" stroke-linecap="round"/>
  <path d="M12 32C12 25.3726 17.3726 20 24 20" stroke="#764BA2" stroke-width="2.5" stroke-linecap="round"/>

  <!-- Outer wave -->
  <path d="M24 14C33.9411 14 42 22.0589 42 32" stroke="#A78BFA" stroke-width="2.5" stroke-linecap="round" opacity="0.7"/>
  <path d="M6 32C6 22.0589 14.0589 14 24 14" stroke="#A78BFA" stroke-width="2.5" stroke-linecap="round" opacity="0.7"/>

  <!-- Document/Checklist icon integrated -->
  <rect x="30" y="10" width="14" height="18" rx="2" fill="white" stroke="#667EEA" stroke-width="2"/>
  <line x1="33" y1="15" x2="41" y2="15" stroke="#667EEA" stroke-width="1.5" stroke-linecap="round"/>
  <line x1="33" y1="19" x2="41" y2="19" stroke="#764BA2" stroke-width="1.5" stroke-linecap="round"/>
  <line x1="33" y1="23" x2="38" y2="23" stroke="#A78BFA" stroke-width="1.5" stroke-linecap="round"/>

  <!-- Checkmarks -->
  <path d="M32 15L33 16L34.5 14" stroke="#10B981" stroke-width="1.2" stroke-linecap="round" stroke-linejoin="round"/>
  <path d="M32 19L33 20L34.5 18" stroke="#10B981" stroke-width="1.2" stroke-linecap="round" stroke-linejoin="round"/>
</svg>
